<?xml version="1.0" encoding="utf-8"?>
<!-- Generator: Adobe Illustrator 16.0.3, SVG Export Plug-In . SVG Version: 6.00 Build 0)  -->
<!DOCTYPE svg PUBLIC "-//W3C//DTD SVG 1.1//EN" "http://www.w3.org/Graphics/SVG/1.1/DTD/svg11.dtd">
<svg version="1.1" id="Layer_1" xmlns="http://www.w3.org/2000/svg" xmlns:xlink="http://www.w3.org/1999/xlink" x="0px" y="0px"
	 width="64px" height="64px" viewBox="0 0 64 64" enable-background="new 0 0 64 64" xml:space="preserve">
<g id="Layer_2">
</g>
<g id="Layer_1_1_">
	<path fill="#455B72" d="M29.785,37.165C28.945,41.57,27.92,45.794,24.88,48c-0.938-6.658,1.378-11.658,2.452-16.967
		c-1.833-3.089,0.221-9.3,4.09-7.769c4.76,1.883-4.121,11.477,1.84,12.675c6.227,1.252,8.768-10.8,4.907-14.718
		c-5.577-5.661-16.236-0.132-14.925,7.97c0.318,1.98,2.365,2.582,0.818,5.314c-3.57-0.79-4.635-3.606-4.498-7.359
		c0.221-6.143,5.52-10.443,10.835-11.039c6.724-0.753,13.033,2.468,13.9,8.791c0.98,7.136-3.031,14.866-10.222,14.309
		C32.131,39.059,31.313,38.094,29.785,37.165z"/>
</g>
</svg>
