<?xml version="1.0" encoding="utf-8"?>
<!-- Generator: Adobe Illustrator 16.0.3, SVG Export Plug-In . SVG Version: 6.00 Build 0)  -->
<!DOCTYPE svg PUBLIC "-//W3C//DTD SVG 1.1//EN" "http://www.w3.org/Graphics/SVG/1.1/DTD/svg11.dtd">
<svg version="1.1" id="Layer_1" xmlns="http://www.w3.org/2000/svg" xmlns:xlink="http://www.w3.org/1999/xlink" x="0px" y="0px"
	 width="64px" height="64px" viewBox="0 0 64 64" enable-background="new 0 0 64 64" xml:space="preserve">
<g id="Layer_2">
	<g>
		<path fill="#455B72" d="M40.579,23.426C35.793,18.638,29.428,16,22.653,16h-0.001v3.016c0,0,0,0,0.001,0
			c5.969,0,11.578,2.323,15.792,6.542c4.217,4.219,6.539,9.834,6.539,15.809H48C48,34.586,45.363,28.215,40.579,23.426z"/>
		<path fill="#455B72" d="M22.647,25.331v3.016c7.173,0,13.007,5.84,13.009,13.018h3.016C38.671,32.523,31.483,25.331,22.647,25.331
			z"/>
		<path fill="#455B72" d="M23.248,34.73c-1.448,0-2.786,0.465-3.877,1.25V25.266h-2.997v22.548h2.997V46.75
			c1.09,0.786,2.427,1.25,3.873,1.251c3.666,0,6.631-2.972,6.631-6.634C29.877,37.699,26.91,34.73,23.248,34.73z M23.243,44.662
			c-1.82,0-3.296-1.477-3.296-3.297s1.476-3.297,3.296-3.297c1.821,0,3.297,1.477,3.297,3.297
			C26.54,43.188,25.064,44.662,23.243,44.662z"/>
	</g>
</g>
<g id="Layer_1_1_">
</g>
</svg>
