<?xml version="1.0" encoding="utf-8"?>
<!-- Generator: Adobe Illustrator 16.0.3, SVG Export Plug-In . SVG Version: 6.00 Build 0)  -->
<!DOCTYPE svg PUBLIC "-//W3C//DTD SVG 1.1//EN" "http://www.w3.org/Graphics/SVG/1.1/DTD/svg11.dtd">
<svg version="1.1" id="Layer_1" xmlns="http://www.w3.org/2000/svg" xmlns:xlink="http://www.w3.org/1999/xlink" x="0px" y="0px"
	 width="64px" height="64px" viewBox="0 0 64 64" enable-background="new 0 0 64 64" xml:space="preserve">
<g id="Layer_2">
</g>
<g id="Layer_1_1_">
	<path fill="#455B72" d="M32.846,41.711c0-0.27-0.027-0.529-0.086-0.779c-0.058-0.25-0.119-0.479-0.183-0.691
		c-0.063-0.211-0.177-0.434-0.337-0.663c-0.16-0.231-0.295-0.427-0.404-0.587c-0.108-0.16-0.278-0.35-0.509-0.567
		s-0.407-0.381-0.529-0.489c-0.122-0.109-0.327-0.272-0.615-0.49c-0.288-0.219-0.487-0.365-0.597-0.442
		c-0.108-0.077-0.32-0.224-0.634-0.442c-0.314-0.218-0.51-0.353-0.587-0.404c-0.218-0.025-0.538-0.038-0.961-0.038
		c-0.693,0-1.372,0.045-2.039,0.135c-0.666,0.09-1.359,0.25-2.076,0.481c-0.719,0.229-1.347,0.524-1.885,0.884
		c-0.539,0.358-0.981,0.84-1.327,1.442c-0.347,0.603-0.52,1.289-0.52,2.058c0,0.872,0.228,1.651,0.683,2.337
		c0.455,0.686,1.051,1.224,1.789,1.615c0.736,0.391,1.51,0.683,2.316,0.875c0.809,0.191,1.622,0.289,2.443,0.289
		c0.756,0,1.477-0.082,2.163-0.241c0.686-0.16,1.33-0.41,1.933-0.75c0.603-0.341,1.08-0.812,1.433-1.413
		C32.67,43.225,32.846,42.52,32.846,41.711z M30.539,25.135c0-0.77-0.106-1.587-0.318-2.452c-0.211-0.865-0.512-1.702-0.903-2.51
		c-0.392-0.808-0.93-1.474-1.615-2c-0.687-0.525-1.452-0.788-2.298-0.788c-1.193,0-2.115,0.442-2.77,1.327
		c-0.654,0.885-0.98,1.942-0.98,3.173c0,0.603,0.073,1.237,0.221,1.904c0.147,0.667,0.375,1.333,0.683,2s0.667,1.266,1.077,1.798
		c0.41,0.532,0.91,0.965,1.5,1.298c0.59,0.333,1.211,0.5,1.865,0.5c1.244,0,2.145-0.388,2.702-1.164
		C30.26,27.445,30.539,26.417,30.539,25.135z M28.02,16h8.403l-2.596,1.519H31.23c0.91,0.577,1.616,1.385,2.116,2.423
		s0.75,2.122,0.75,3.25c0,0.949-0.146,1.792-0.441,2.529c-0.295,0.737-0.654,1.33-1.077,1.779c-0.423,0.449-0.847,0.862-1.27,1.24
		c-0.423,0.378-0.782,0.77-1.077,1.173c-0.295,0.403-0.441,0.836-0.441,1.298c0,0.333,0.105,0.661,0.316,0.981
		c0.212,0.32,0.487,0.628,0.827,0.923c0.34,0.295,0.715,0.603,1.125,0.923c0.41,0.319,0.82,0.676,1.231,1.067
		c0.41,0.391,0.785,0.813,1.125,1.269c0.339,0.455,0.614,1,0.825,1.635c0.213,0.634,0.318,1.317,0.318,2.048
		c0,2.051-0.897,3.859-2.693,5.424C30.916,47.16,28.225,48,24.789,48c-0.757,0-1.523-0.064-2.299-0.191
		c-0.775-0.129-1.558-0.344-2.346-0.645c-0.789-0.301-1.484-0.673-2.087-1.116c-0.603-0.442-1.097-1.013-1.48-1.711
		C16.192,43.639,16,42.859,16,42c0-0.782,0.237-1.646,0.711-2.596c0.41-0.82,1.026-1.529,1.847-2.125
		c0.821-0.596,1.75-1.051,2.788-1.365c1.039-0.314,2.033-0.545,2.981-0.691c0.948-0.147,1.91-0.234,2.884-0.261
		c-0.82-1.063-1.23-2.019-1.23-2.865c0-0.154,0.014-0.305,0.039-0.452s0.058-0.272,0.096-0.375c0.039-0.103,0.09-0.24,0.154-0.413
		s0.109-0.311,0.135-0.414c-0.514,0.064-0.962,0.096-1.347,0.096c-1.91,0-3.548-0.628-4.913-1.885
		c-1.365-1.257-2.049-2.833-2.049-4.731c0-1.795,0.609-3.4,1.827-4.817c1.218-1.417,2.718-2.324,4.5-2.721
		C25.629,16.128,26.827,16,28.02,16z M48,20.923v2.462h-4.923v4.923h-2.462v-4.923h-4.924v-2.462h4.924V16h2.462v4.923H48z"/>
</g>
</svg>
