<?xml version="1.0" encoding="utf-8"?>
<!-- Generator: Adobe Illustrator 16.0.3, SVG Export Plug-In . SVG Version: 6.00 Build 0)  -->
<!DOCTYPE svg PUBLIC "-//W3C//DTD SVG 1.1//EN" "http://www.w3.org/Graphics/SVG/1.1/DTD/svg11.dtd">
<svg version="1.1" id="Layer_1" xmlns="http://www.w3.org/2000/svg" xmlns:xlink="http://www.w3.org/1999/xlink" x="0px" y="0px"
	 width="64px" height="64px" viewBox="0 0 64 64" enable-background="new 0 0 64 64" xml:space="preserve">
<g id="Layer_2">
</g>
<g id="Layer_1_1_">
	<path fill="#455B72" d="M48,25.073c-1.177,0.521-2.441,0.875-3.771,1.034c1.355-0.813,2.396-2.099,2.888-3.632
		c-1.269,0.752-2.675,1.298-4.169,1.593c-1.197-1.276-2.903-2.073-4.793-2.073c-3.625,0-6.564,2.939-6.564,6.565
		c0,0.515,0.058,1.016,0.17,1.497c-5.457-0.274-10.294-2.888-13.532-6.86c-0.565,0.97-0.889,2.098-0.889,3.301
		c0,2.278,1.159,4.287,2.92,5.464c-1.076-0.034-2.088-0.329-2.973-0.821c-0.001,0.027-0.001,0.055-0.001,0.083
		c0,3.181,2.263,5.834,5.267,6.438c-0.551,0.15-1.131,0.23-1.729,0.23c-0.423,0-0.834-0.041-1.235-0.119
		c0.835,2.608,3.26,4.507,6.133,4.56c-2.247,1.761-5.078,2.812-8.153,2.812c-0.53,0-1.053-0.031-1.566-0.093
		C18.905,46.913,22.356,48,26.063,48c12.076,0,18.68-10.004,18.68-18.68c0-0.285-0.007-0.567-0.019-0.849
		C46.007,27.545,47.12,26.389,48,25.073z"/>
</g>
</svg>
