<?xml version="1.0" encoding="utf-8"?>
<!-- Generator: Adobe Illustrator 16.0.3, SVG Export Plug-In . SVG Version: 6.00 Build 0)  -->
<!DOCTYPE svg PUBLIC "-//W3C//DTD SVG 1.1//EN" "http://www.w3.org/Graphics/SVG/1.1/DTD/svg11.dtd">
<svg version="1.1" id="Layer_1" xmlns="http://www.w3.org/2000/svg" xmlns:xlink="http://www.w3.org/1999/xlink" x="0px" y="0px"
	 width="64px" height="64px" viewBox="0 0 64 64" enable-background="new 0 0 64 64" xml:space="preserve">
<g id="Layer_2">
</g>
<g id="Layer_1_1_">
	<path fill="#455B72" d="M46.645,22.991c-0.883-1.562-1.826-1.855-3.74-1.974C40.988,20.899,36.18,20.84,32,20.84l0,0
		c-4.179,0-8.988,0.059-10.904,0.177c-1.914,0.118-2.857,0.412-3.74,1.974C16.473,24.551,16,27.259,16,31.996l0,0
		C16,31.998,16,32,16,32s0,0.003,0,0.005l0,0c0,4.736,0.473,7.444,1.355,9.005c0.883,1.563,1.826,1.855,3.74,1.975
		c1.916,0.117,6.726,0.177,10.904,0.177l0,0c4.179,0,8.989-0.06,10.903-0.177c1.914-0.118,2.857-0.412,3.74-1.975
		C47.527,39.45,48,36.742,48,32.005c0-0.002,0-0.004,0-0.005s0-0.003,0-0.005C48,27.259,47.527,24.551,46.645,22.991z
		 M28.814,37.866v-11.73L37.9,32L28.814,37.866z"/>
</g>
</svg>
